<?xml version="1.0" encoding="UTF-8" standalone="no"?>
<!-- Created with Inkscape (http://www.inkscape.org/) -->

<svg
   width="18.366879mm"
   height="18.366879mm"
   viewBox="0 0 18.366879 18.366878"
   version="1.1"
   id="svg1"
   xml:space="preserve"
   inkscape:version="1.4.3 (0d15f75, 2025-12-25)"
   sodipodi:docname="haze-alerting-icon.svg"
   xmlns:inkscape="http://www.inkscape.org/namespaces/inkscape"
   xmlns:sodipodi="http://sodipodi.sourceforge.net/DTD/sodipodi-0.dtd"
   xmlns:xlink="http://www.w3.org/1999/xlink"
   xmlns="http://www.w3.org/2000/svg"
   xmlns:svg="http://www.w3.org/2000/svg"><sodipodi:namedview
     id="namedview1"
     pagecolor="#505050"
     bordercolor="#ffffff"
     borderopacity="1"
     inkscape:showpageshadow="0"
     inkscape:pageopacity="0"
     inkscape:pagecheckerboard="1"
     inkscape:deskcolor="#505050"
     inkscape:document-units="mm"
     inkscape:zoom="7.9999999"
     inkscape:cx="21.5625"
     inkscape:cy="35.1875"
     inkscape:window-width="2560"
     inkscape:window-height="1369"
     inkscape:window-x="1912"
     inkscape:window-y="-8"
     inkscape:window-maximized="1"
     inkscape:current-layer="layer1" /><defs
     id="defs1"><linearGradient
       id="linearGradient121"
       inkscape:collect="always"><stop
         style="stop-color:#a5d1ff;stop-opacity:1;"
         offset="0"
         id="stop121" /><stop
         style="stop-color:#78bbff;stop-opacity:1;"
         offset="1"
         id="stop122" /></linearGradient><linearGradient
       id="linearGradient114"
       inkscape:collect="always"><stop
         style="stop-color:#003375;stop-opacity:1;"
         offset="0"
         id="stop115" /><stop
         style="stop-color:#0059b4;stop-opacity:1;"
         offset="0.78794992"
         id="stop177" /><stop
         style="stop-color:#007ff3;stop-opacity:1;"
         offset="1"
         id="stop116" /></linearGradient><linearGradient
       id="linearGradient19"
       inkscape:collect="always"><stop
         style="stop-color:#ffffff;stop-opacity:1;"
         offset="0"
         id="stop19" /><stop
         style="stop-color:#8cbff3;stop-opacity:1;"
         offset="1"
         id="stop21" /></linearGradient><linearGradient
       id="swatch2"
       inkscape:swatch="solid"><stop
         style="stop-color:#000000;stop-opacity:1;"
         offset="0"
         id="stop2" /></linearGradient><linearGradient
       id="linearGradient9"
       inkscape:collect="always"><stop
         style="stop-color:#000000;stop-opacity:1;"
         offset="0"
         id="stop9" /><stop
         style="stop-color:#000000;stop-opacity:1;"
         offset="1"
         id="stop10" /></linearGradient><linearGradient
       id="linearGradient6"
       inkscape:collect="always"><stop
         style="stop-color:#000000;stop-opacity:1;"
         offset="0"
         id="stop6" /><stop
         style="stop-color:#000000;stop-opacity:0;"
         offset="1"
         id="stop7" /></linearGradient><linearGradient
       inkscape:collect="always"
       xlink:href="#linearGradient6"
       id="linearGradient7"
       x1="18.852207"
       y1="87.802307"
       x2="59.533329"
       y2="87.802307"
       gradientUnits="userSpaceOnUse" /><linearGradient
       inkscape:collect="always"
       xlink:href="#linearGradient9"
       id="linearGradient10"
       x1="19.560354"
       y1="100.36732"
       x2="57.73653"
       y2="100.36732"
       gradientUnits="userSpaceOnUse" /><linearGradient
       id="swatch80"
       inkscape:swatch="solid"><stop
         style="stop-color:#000080;stop-opacity:1;"
         offset="0"
         id="stop80" /></linearGradient><radialGradient
       inkscape:collect="always"
       xlink:href="#linearGradient15"
       id="radialGradient17"
       cx="1107.0459"
       cy="157.5406"
       fx="1107.0459"
       fy="157.5406"
       r="52.66703"
       gradientTransform="matrix(1,0,0,0.8375946,0,25.585444)"
       gradientUnits="userSpaceOnUse" /><linearGradient
       id="linearGradient15"
       inkscape:collect="always"><stop
         style="stop-color:#4d93ff;stop-opacity:1;"
         offset="0"
         id="stop16" /><stop
         style="stop-color:#003ec6;stop-opacity:1;"
         offset="1"
         id="stop17" /></linearGradient><radialGradient
       inkscape:collect="always"
       xlink:href="#linearGradient14"
       id="radialGradient15"
       cx="1135.853"
       cy="134.63547"
       fx="1135.853"
       fy="134.63547"
       r="81.4925"
       gradientTransform="matrix(1,0,0,0.82239166,0,23.912382)"
       gradientUnits="userSpaceOnUse"
       spreadMethod="reflect" /><linearGradient
       id="linearGradient14"
       inkscape:collect="always"><stop
         style="stop-color:#1364ff;stop-opacity:1;"
         offset="0"
         id="stop14" /><stop
         style="stop-color:#002748;stop-opacity:1;"
         offset="1"
         id="stop15" /></linearGradient><linearGradient
       inkscape:collect="always"
       xlink:href="#linearGradient19"
       id="linearGradient21"
       gradientUnits="userSpaceOnUse"
       x1="11.226515"
       y1="24.486046"
       x2="59.894176"
       y2="43.167812" /><filter
       style="color-interpolation-filters:sRGB"
       inkscape:label="Drop Shadow"
       id="filter37"
       x="-7.9602847e-05"
       y="-0.00023109288"
       width="1.0116689"
       height="1.0338756"><feFlood
         result="flood"
         in="SourceGraphic"
         flood-opacity="0.811765"
         flood-color="rgb(0,0,0)"
         id="feFlood36" /><feGaussianBlur
         result="blur"
         in="SourceGraphic"
         stdDeviation="0.0017290452"
         id="feGaussianBlur36" /><feOffset
         result="offset"
         in="blur"
         dx="0.600000"
         dy="0.600000"
         id="feOffset36" /><feComposite
         result="comp1"
         operator="in"
         in="flood"
         in2="offset"
         id="feComposite36" /><feComposite
         result="comp2"
         operator="over"
         in="SourceGraphic"
         in2="comp1"
         id="feComposite37" /></filter><filter
       style="color-interpolation-filters:sRGB"
       inkscape:label="Drop Shadow"
       id="filter39"
       x="-0.40028486"
       y="-0.39056581"
       width="1.855442"
       height="1.8346717"><feFlood
         result="flood"
         in="SourceGraphic"
         flood-opacity="0.811765"
         flood-color="rgb(0,0,0)"
         id="feFlood37" /><feGaussianBlur
         result="blur"
         in="SourceGraphic"
         stdDeviation="1.823708"
         id="feGaussianBlur37" /><feOffset
         result="offset"
         in="blur"
         dx="0.600000"
         dy="0.600000"
         id="feOffset37" /><feComposite
         result="comp1"
         operator="in"
         in="flood"
         in2="offset"
         id="feComposite38" /><feComposite
         result="comp2"
         operator="over"
         in="SourceGraphic"
         in2="comp1"
         id="feComposite39" /></filter><linearGradient
       inkscape:collect="always"
       xlink:href="#linearGradient114"
       id="linearGradient116"
       x1="18.907185"
       y1="28.142771"
       x2="39.449051"
       y2="45.999542"
       gradientUnits="userSpaceOnUse"
       gradientTransform="matrix(0.6081627,0,0,0.68371856,-8.561601,-16.162801)" /><linearGradient
       inkscape:collect="always"
       xlink:href="#linearGradient19"
       id="linearGradient119"
       gradientUnits="userSpaceOnUse"
       x1="11.226515"
       y1="24.486046"
       x2="59.894176"
       y2="43.167812"
       gradientTransform="matrix(1.3574099,0,0,1.3451756,-3.6281477,-8.5770917)" /><linearGradient
       inkscape:collect="always"
       xlink:href="#linearGradient121"
       id="linearGradient122"
       x1="18.911814"
       y1="8.7658234"
       x2="35.838692"
       y2="8.7658234"
       gradientUnits="userSpaceOnUse"
       gradientTransform="translate(-18.191813,0.41761517)" /><filter
       style="color-interpolation-filters:sRGB"
       inkscape:label="Drop Shadow"
       id="filter141"
       x="-0.064026463"
       y="-0.17103146"
       width="1.1369455"
       height="1.3658173"><feFlood
         result="flood"
         in="SourceGraphic"
         flood-opacity="0.811765"
         flood-color="rgb(0,0,0)"
         id="feFlood140" /><feGaussianBlur
         result="blur"
         in="SourceGraphic"
         stdDeviation="1.200000"
         id="feGaussianBlur140" /><feOffset
         result="offset"
         in="blur"
         dx="0.400000"
         dy="0.400000"
         id="feOffset140" /><feComposite
         result="comp1"
         operator="in"
         in="flood"
         in2="offset"
         id="feComposite140" /><feComposite
         result="comp2"
         operator="over"
         in="SourceGraphic"
         in2="comp1"
         id="feComposite141" /></filter><filter
       style="color-interpolation-filters:sRGB"
       inkscape:label="Drop Shadow"
       id="filter177"
       x="-0.084869541"
       y="-0.084869541"
       width="1.1697391"
       height="1.1697391"><feFlood
         result="flood"
         in="SourceGraphic"
         flood-opacity="0.568627"
         flood-color="rgb(0,0,0)"
         id="feFlood176" /><feGaussianBlur
         result="blur"
         in="SourceGraphic"
         stdDeviation="0.300000"
         id="feGaussianBlur176" /><feOffset
         result="offset"
         in="blur"
         dx="0.000000"
         dy="0.000000"
         id="feOffset176" /><feComposite
         result="comp1"
         operator="out"
         in="flood"
         in2="offset"
         id="feComposite176" /><feComposite
         result="comp2"
         operator="atop"
         in="comp1"
         in2="SourceGraphic"
         id="feComposite177" /></filter></defs><path
     id="rect3"
     style="font-size:16.9333px;line-height:1.25;font-family:Inter;-inkscape-font-specification:Inter;letter-spacing:-0.629708px;word-spacing:0.211667px;fill:url(#linearGradient116);fill-rule:evenodd;stroke:url(#linearGradient122);stroke-width:1.22519;stroke-linecap:round;stroke-linejoin:bevel;filter:url(#filter177)"
     d="M 4.6607977,1.332595 H 13.70608 c 1.843824,0 3.328203,1.4843784 3.328203,3.3282027 V 13.70608 c 0,1.843824 -1.484379,3.328203 -3.328203,3.328203 H 4.6607977 c -1.8438243,0 -3.3282027,-1.484379 -3.3282027,-3.328203 V 4.6607977 c 0,-1.8438243 1.4843784,-3.3282027 3.3282027,-3.3282027 z" /><g
     inkscape:label="Layer 1"
     inkscape:groupmode="layer"
     id="layer1"
     transform="translate(-27.398211,-24.141992)"><g
       id="g17"
       transform="matrix(0.88591303,0,0,0.78778112,-13.008718,-36.224538)"
       style="stroke:#a4dcff;stroke-width:0.19990246;stroke-dasharray:none;stroke-opacity:1;paint-order:normal;stroke-linecap:round;stroke-linejoin:round"><path
         style="fill:url(#radialGradient17);stroke:#a4dcff;stroke-width:2.66913322;stroke-dasharray:none;stroke-opacity:1;paint-order:normal;stroke-linecap:round;stroke-linejoin:round"
         d="m 1138.9179,197.81498 c -0.2511,-4.59003 -1.1715,-10.49465 -2.3112,-14.82764 -3.0396,-11.55615 -9.3679,-21.76122 -19.0865,-30.77924 -14.4452,-13.40373 -32.7442,-20.42263 -56.2764,-21.58565 -7.422,-0.36681 -6.855,0.42167 -6.855,-9.53378 v -7.66169 h 4.6229 c 10.8112,0 23.3429,2.09314 35.3112,5.89789 18.9572,6.02661 34.3599,16.0265 46.3676,30.10339 4.5983,5.39063 10.0583,14.27298 12.7608,20.75925 3.4594,8.3028 6.2616,21.11711 6.2616,28.63373 v 2.83298 h -10.2924 -10.2925 z"
         id="path4"
         inkscape:transform-center-x="50.650765"
         inkscape:transform-center-y="23.400753"
         transform="matrix(0.06708876,0,0,0.08360765,-16.981636,72.319555)" /><path
         style="fill:url(#radialGradient15);stroke:#a4dcff;stroke-width:2.66913322;stroke-dasharray:none;stroke-opacity:1;paint-order:normal;stroke-linecap:round;stroke-linejoin:round"
         d="m 1196.4874,199.77224 c -1.2405,-12.46321 -2.0335,-17.5655 -3.702,-23.8196 -4.2698,-16.0061 -13.5028,-32.02806 -26.4008,-45.81367 -21.2934,-22.75855 -54.349,-39.093319 -88.6082,-43.786586 -4.63,-0.634292 -12.7661,-1.341507 -19.5038,-1.695339 l -3.9121,-0.205447 0.093,-8.257943 c 0.066,-5.85936 0.201,-8.32061 0.4631,-8.473693 0.7373,-0.430515 15.9782,0.558251 24.9275,1.617196 21.1498,2.502574 44.7006,10.189745 64.1172,20.928346 12.724,7.037146 22.8314,14.445176 33.4185,24.493456 11.8955,11.29008 19.9465,21.9094 27.1465,35.80616 7.2399,13.97342 11.3367,29.08617 12.2982,45.36788 0.1026,1.73895 0.2618,3.73761 0.3539,4.44148 l 0.1671,1.27974 h -10.3357 -10.3357 z"
         id="path5"
         inkscape:transform-center-x="21.843634"
         inkscape:transform-center-y="0.49561951"
         transform="matrix(0.06708876,0,0,0.08360765,-16.981636,72.319555)" /></g><g
       id="text1"
       style="font-size:16.9333px;line-height:1.25;font-family:Inter;-inkscape-font-specification:Inter;letter-spacing:-0.629708px;word-spacing:0.211667px;fill:url(#linearGradient21);stroke:none;stroke-width:0;stroke-opacity:1;filter:url(#filter141)"
       aria-label="haze.&#10;unified alerting platform"
       transform="matrix(0.32619218,0,0,0.30991728,25.962115,26.263751)"><path
         id="path10"
         style="font-weight:500;-inkscape-font-specification:'Inter Medium';letter-spacing:-1.16946px;fill:url(#linearGradient119);stroke:none;stroke-width:0.270256;stroke-dasharray:none;stroke-opacity:1"
         d="m 53.561356,41.609641 q -0.650955,0 -1.111112,-0.444889 -0.448935,-0.456009 -0.448935,-1.112219 0,-0.65621 0.448935,-1.101098 0.460157,-0.45601 1.111112,-0.45601 0.662177,0 1.111112,0.45601 0.460158,0.444888 0.460158,1.101098 0,0.65621 -0.460158,1.112219 -0.448935,0.444889 -1.111112,0.444889 z M 12.519351,34.658267 v 6.762296 H 10.151223 V 24.848488 h 2.368128 v 7.74105 h -0.594838 q 0.583615,-1.579352 1.616164,-2.357906 1.043771,-0.789676 2.51403,-0.789676 1.223346,0 2.188555,0.533865 0.976431,0.522743 1.537599,1.557108 0.561168,1.034365 0.561168,2.569228 v 7.318406 h -2.368127 v -7.029228 q 0,-1.41252 -0.684625,-2.124341 -0.673402,-0.722943 -1.907971,-0.722943 -0.808081,0 -1.459035,0.322544 -0.639731,0.322543 -1.021326,1.012121 -0.381594,0.689576 -0.381594,1.779551 z m 12.52032,6.951374 q -1.178453,0 -2.109991,-0.4004 -0.920315,-0.400399 -1.459036,-1.190075 -0.538721,-0.789676 -0.538721,-1.957506 0,-1.000998 0.381594,-1.646086 0.392818,-0.645087 1.054995,-1.023242 0.662179,-0.378154 1.50393,-0.567232 0.841752,-0.2002 1.73962,-0.3003 1.122335,-0.144589 1.762066,-0.222443 0.650954,-0.08898 0.920316,-0.266933 0.280583,-0.189078 0.280583,-0.611721 v -0.100095 q 0,-0.567232 -0.280583,-1.000997 -0.280585,-0.444889 -0.819306,-0.700698 -0.53872,-0.255811 -1.290685,-0.255811 -0.751965,0 -1.33558,0.244687 -0.572391,0.244689 -0.920314,0.678454 -0.336702,0.422644 -0.381594,0.967632 H 21.22373 q 0.05612,-1.123342 0.684624,-1.979751 0.628508,-0.856409 1.728397,-1.345786 1.099889,-0.489377 2.581372,-0.489377 1.088665,0 1.964086,0.278055 0.875422,0.278056 1.481484,0.800799 0.617284,0.51162 0.931538,1.234563 0.325477,0.722943 0.325477,1.612719 v 8.052471 H 28.58625 v -1.668329 h -0.04489 q -0.246913,0.478254 -0.6734,0.900897 -0.426489,0.422645 -1.122337,0.689578 -0.684624,0.266932 -1.705949,0.266932 z m 0.482604,-1.890773 q 1.043772,0 1.717174,-0.367033 0.684624,-0.378156 1.010101,-0.989876 0.3367,-0.611721 0.3367,-1.334664 v -1.379152 q -0.123456,0.100094 -0.404041,0.189076 -0.26936,0.07786 -0.662177,0.155711 -0.392818,0.06673 -0.852975,0.144589 -0.460157,0.07786 -0.920315,0.133468 -0.650954,0.08897 -1.212123,0.300299 -0.561166,0.2002 -0.909091,0.567232 -0.3367,0.367033 -0.3367,0.967632 0,0.500498 0.26936,0.867531 0.269361,0.35591 0.774411,0.55611 0.505051,0.189078 1.189676,0.189077 z m 6.212796,1.701695 v -1.701695 l 6.285078,-8.007984 v -0.04449 h -6.285078 v -1.990873 h 9.147033 v 1.779551 L 34.686813,39.3852 v 0.04449 h 6.26263 v 1.990873 z m 14.681953,0.266933 q -1.762067,0 -3.030306,-0.789676 -1.257016,-0.789676 -1.941641,-2.168828 -0.6734,-1.390275 -0.6734,-3.158705 0,-1.801796 0.707071,-3.180949 0.707071,-1.390274 1.952863,-2.17995 1.245793,-0.800799 2.861955,-0.800799 1.257016,0 2.267118,0.444888 1.021326,0.444888 1.750844,1.267931 0.729517,0.811921 1.122335,1.935262 0.392817,1.123343 0.392817,2.491373 v 0.633965 h -9.988785 v -1.779552 h 8.742993 l -1.043772,0.544988 q 0,-1.089976 -0.392818,-1.890774 -0.392817,-0.81192 -1.122335,-1.245686 -0.718294,-0.444888 -1.705949,-0.444888 -0.976433,0 -1.694726,0.444888 -0.718296,0.433766 -1.122337,1.245686 -0.392817,0.800798 -0.392817,1.890774 v 1.01212 q 0,1.11222 0.392817,1.968629 0.392818,0.845286 1.13356,1.323542 0.751964,0.478254 1.818182,0.478254 0.774412,0 1.36925,-0.233566 0.594838,-0.244688 0.987655,-0.667331 0.392818,-0.422645 0.561168,-0.978754 h 2.278341 q -0.213244,1.134465 -0.953985,2.001995 -0.729518,0.85641 -1.84063,1.345786 -1.099889,0.489377 -2.435468,0.489377 z" /></g></g></svg>
