<?xml version="1.0" encoding="UTF-8" standalone="no"?>
<!-- Created with Inkscape (http://www.inkscape.org/) -->

<svg
   width="53.307911mm"
   height="19.134647mm"
   viewBox="0 0 53.307911 19.134647"
   version="1.1"
   id="svg1"
   xml:space="preserve"
   inkscape:version="1.4.3 (0d15f75, 2025-12-25)"
   sodipodi:docname="haze-alerting.svg"
   xmlns:inkscape="http://www.inkscape.org/namespaces/inkscape"
   xmlns:sodipodi="http://sodipodi.sourceforge.net/DTD/sodipodi-0.dtd"
   xmlns:xlink="http://www.w3.org/1999/xlink"
   xmlns="http://www.w3.org/2000/svg"
   xmlns:svg="http://www.w3.org/2000/svg"><sodipodi:namedview
     id="namedview1"
     pagecolor="#505050"
     bordercolor="#ffffff"
     borderopacity="1"
     inkscape:showpageshadow="0"
     inkscape:pageopacity="0"
     inkscape:pagecheckerboard="1"
     inkscape:deskcolor="#505050"
     inkscape:document-units="mm"
     inkscape:zoom="5.6568542"
     inkscape:cx="61.960232"
     inkscape:cy="29.610096"
     inkscape:window-width="2560"
     inkscape:window-height="1369"
     inkscape:window-x="1912"
     inkscape:window-y="-8"
     inkscape:window-maximized="1"
     inkscape:current-layer="layer1" /><defs
     id="defs1"><linearGradient
       id="linearGradient19"
       inkscape:collect="always"><stop
         style="stop-color:#ffffff;stop-opacity:1;"
         offset="0"
         id="stop19" /><stop
         style="stop-color:#8cbff3;stop-opacity:1;"
         offset="1"
         id="stop21" /></linearGradient><linearGradient
       id="linearGradient13"
       inkscape:collect="always"><stop
         style="stop-color:#a475e9;stop-opacity:1;"
         offset="0"
         id="stop13" /><stop
         style="stop-color:#a475e9;stop-opacity:0;"
         offset="1"
         id="stop18" /></linearGradient><linearGradient
       id="swatch2"
       inkscape:swatch="solid"><stop
         style="stop-color:#000000;stop-opacity:1;"
         offset="0"
         id="stop2" /></linearGradient><linearGradient
       id="linearGradient9"
       inkscape:collect="always"><stop
         style="stop-color:#000000;stop-opacity:1;"
         offset="0"
         id="stop9" /><stop
         style="stop-color:#000000;stop-opacity:1;"
         offset="1"
         id="stop10" /></linearGradient><linearGradient
       id="linearGradient6"
       inkscape:collect="always"><stop
         style="stop-color:#000000;stop-opacity:1;"
         offset="0"
         id="stop6" /><stop
         style="stop-color:#000000;stop-opacity:0;"
         offset="1"
         id="stop7" /></linearGradient><linearGradient
       inkscape:collect="always"
       xlink:href="#linearGradient6"
       id="linearGradient7"
       x1="18.852207"
       y1="87.802307"
       x2="59.533329"
       y2="87.802307"
       gradientUnits="userSpaceOnUse" /><linearGradient
       inkscape:collect="always"
       xlink:href="#linearGradient9"
       id="linearGradient10"
       x1="19.560354"
       y1="100.36732"
       x2="57.73653"
       y2="100.36732"
       gradientUnits="userSpaceOnUse" /><linearGradient
       id="swatch80"
       inkscape:swatch="solid"><stop
         style="stop-color:#000080;stop-opacity:1;"
         offset="0"
         id="stop80" /></linearGradient><radialGradient
       inkscape:collect="always"
       xlink:href="#linearGradient15"
       id="radialGradient17"
       cx="1107.0459"
       cy="157.5406"
       fx="1107.0459"
       fy="157.5406"
       r="52.66703"
       gradientTransform="matrix(1,0,0,0.8375946,0,25.585444)"
       gradientUnits="userSpaceOnUse" /><linearGradient
       id="linearGradient15"
       inkscape:collect="always"><stop
         style="stop-color:#aaccff;stop-opacity:1;"
         offset="0"
         id="stop16" /><stop
         style="stop-color:#3d88ff;stop-opacity:1;"
         offset="1"
         id="stop17" /></linearGradient><radialGradient
       inkscape:collect="always"
       xlink:href="#linearGradient14"
       id="radialGradient15"
       cx="1135.853"
       cy="134.63547"
       fx="1135.853"
       fy="134.63547"
       r="81.4925"
       gradientTransform="matrix(1,0,0,0.82239166,0,23.912382)"
       gradientUnits="userSpaceOnUse" /><linearGradient
       id="linearGradient14"
       inkscape:collect="always"><stop
         style="stop-color:#0066ff;stop-opacity:1;"
         offset="0"
         id="stop14" /><stop
         style="stop-color:#004098;stop-opacity:1;"
         offset="1"
         id="stop15" /></linearGradient><linearGradient
       inkscape:collect="always"
       xlink:href="#linearGradient13"
       id="linearGradient18"
       x1="9.4952784"
       y1="33.826931"
       x2="61.625431"
       y2="33.826931"
       gradientUnits="userSpaceOnUse" /><linearGradient
       inkscape:collect="always"
       xlink:href="#linearGradient19"
       id="linearGradient21"
       gradientUnits="userSpaceOnUse"
       x1="11.226515"
       y1="24.486046"
       x2="59.894176"
       y2="43.167812" /><filter
       style="color-interpolation-filters:sRGB"
       inkscape:label="Drop Shadow"
       id="filter37"
       x="-7.9602844e-05"
       y="-0.00023109288"
       width="1.0116689"
       height="1.0338756"><feFlood
         result="flood"
         in="SourceGraphic"
         flood-opacity="0.811765"
         flood-color="rgb(0,0,0)"
         id="feFlood36" /><feGaussianBlur
         result="blur"
         in="SourceGraphic"
         stdDeviation="0.0017290452"
         id="feGaussianBlur36" /><feOffset
         result="offset"
         in="blur"
         dx="0.600000"
         dy="0.600000"
         id="feOffset36" /><feComposite
         result="comp1"
         operator="in"
         in="flood"
         in2="offset"
         id="feComposite36" /><feComposite
         result="comp2"
         operator="over"
         in="SourceGraphic"
         in2="comp1"
         id="feComposite37" /></filter><filter
       style="color-interpolation-filters:sRGB"
       inkscape:label="Drop Shadow"
       id="filter39"
       x="-0.40028485"
       y="-0.3905658"
       width="1.8554421"
       height="1.8346717"><feFlood
         result="flood"
         in="SourceGraphic"
         flood-opacity="0.811765"
         flood-color="rgb(0,0,0)"
         id="feFlood37" /><feGaussianBlur
         result="blur"
         in="SourceGraphic"
         stdDeviation="1.823708"
         id="feGaussianBlur37" /><feOffset
         result="offset"
         in="blur"
         dx="0.600000"
         dy="0.600000"
         id="feOffset37" /><feComposite
         result="comp1"
         operator="in"
         in="flood"
         in2="offset"
         id="feComposite38" /><feComposite
         result="comp2"
         operator="over"
         in="SourceGraphic"
         in2="comp1"
         id="feComposite39" /></filter></defs><g
     inkscape:label="Layer 1"
     inkscape:groupmode="layer"
     id="layer1"
     transform="translate(-9.206398,-24.559607)"><g
       id="g17"
       transform="matrix(0.68359715,0,0,0.71211128,5.1186053,-26.965177)"><path
         style="fill:url(#radialGradient17);stroke:none;stroke-width:0.30954;stroke-opacity:1"
         d="m 1138.9179,197.81498 c -0.2511,-4.59003 -1.1715,-10.49465 -2.3112,-14.82764 -3.0396,-11.55615 -9.3679,-21.76122 -19.0865,-30.77924 -14.4452,-13.40373 -32.7442,-20.42263 -56.2764,-21.58565 -7.422,-0.36681 -6.855,0.42167 -6.855,-9.53378 v -7.66169 h 4.6229 c 10.8112,0 23.3429,2.09314 35.3112,5.89789 18.9572,6.02661 34.3599,16.0265 46.3676,30.10339 4.5983,5.39063 10.0583,14.27298 12.7608,20.75925 3.4594,8.3028 6.2616,21.11711 6.2616,28.63373 v 2.83298 h -10.2924 -10.2925 z"
         id="path4"
         inkscape:transform-center-x="50.650765"
         inkscape:transform-center-y="23.400753"
         transform="matrix(0.06708876,0,0,0.08360765,-16.981636,72.319555)" /><path
         style="fill:url(#radialGradient15);stroke-width:0.30954"
         d="m 1196.4874,199.77224 c -1.2405,-12.46321 -2.0335,-17.5655 -3.702,-23.8196 -4.2698,-16.0061 -13.5028,-32.02806 -26.4008,-45.81367 -21.2934,-22.75855 -54.349,-39.093319 -88.6082,-43.786586 -4.63,-0.634292 -12.7661,-1.341507 -19.5038,-1.695339 l -3.9121,-0.205447 0.093,-8.257943 c 0.066,-5.85936 0.201,-8.32061 0.4631,-8.473693 0.7373,-0.430515 15.9782,0.558251 24.9275,1.617196 21.1498,2.502574 44.7006,10.189745 64.1172,20.928346 12.724,7.037146 22.8314,14.445176 33.4185,24.493456 11.8955,11.29008 19.9465,21.9094 27.1465,35.80616 7.2399,13.97342 11.3367,29.08617 12.2982,45.36788 0.1026,1.73895 0.2618,3.73761 0.3539,4.44148 l 0.1671,1.27974 h -10.3357 -10.3357 z"
         id="path5"
         inkscape:transform-center-x="21.843634"
         inkscape:transform-center-y="0.49561951"
         transform="matrix(0.06708876,0,0,0.08360765,-16.981636,72.319555)" /></g><g
       id="text1"
       style="font-size:16.9333px;line-height:1.25;font-family:Inter;-inkscape-font-specification:Inter;letter-spacing:-0.629708px;word-spacing:0.211667px;fill:url(#linearGradient21);stroke:url(#linearGradient18);stroke-width:0"
       aria-label="haze.&#10;unified alerting platform"><path
         style="font-weight:500;-inkscape-font-specification:'Inter Medium';letter-spacing:-1.16946px;display:inline"
         d="m 11.895816,32.141052 v 5.027073 H 10.151223 V 24.848488 h 1.744593 v 5.754676 h -0.438215 q 0.429947,-1.174086 1.190623,-1.752861 0.768943,-0.587043 1.852079,-0.587043 0.901235,0 1.612302,0.396874 0.719334,0.388606 1.132745,1.15755 0.413411,0.768944 0.413411,1.909957 v 5.440484 h -1.744593 v -5.22551 q 0,-1.050063 -0.504361,-1.579229 -0.496093,-0.537434 -1.405597,-0.537434 -0.595311,0 -1.074867,0.239778 -0.471288,0.239778 -0.752408,0.752408 -0.281119,0.512629 -0.281119,1.322914 z m 9.223684,5.167633 q -0.868163,0 -1.554424,-0.297656 -0.677994,-0.297656 -1.074868,-0.884699 -0.396874,-0.587043 -0.396874,-1.455205 0,-0.744139 0.281119,-1.223696 0.289388,-0.479556 0.777212,-0.760675 0.487825,-0.281119 1.107941,-0.421679 0.620116,-0.148828 1.281573,-0.223242 0.826821,-0.107487 1.298109,-0.165364 0.479556,-0.06615 0.677994,-0.198437 0.206705,-0.14056 0.206705,-0.454752 v -0.07441 q 0,-0.421679 -0.206705,-0.744139 -0.206706,-0.330729 -0.60358,-0.520897 -0.396874,-0.190169 -0.950844,-0.190169 -0.553971,0 -0.983918,0.1819 -0.421679,0.181901 -0.677993,0.504361 -0.248047,0.314192 -0.281119,0.719335 h -1.711521 q 0.04134,-0.83509 0.504361,-1.471742 0.46302,-0.636652 1.273305,-1.000454 0.810285,-0.363801 1.901689,-0.363801 0.802017,0 1.446937,0.206705 0.644921,0.206706 1.091405,0.595312 0.454751,0.380337 0.686261,0.917771 0.239778,0.537434 0.239778,1.198891 v 5.986186 h -1.719788 v -1.240232 h -0.03307 q -0.1819,0.355533 -0.496092,0.669725 -0.314193,0.314193 -0.826822,0.51263 -0.504361,0.198437 -1.256768,0.198437 z m 0.355533,-1.405596 q 0.768944,0 1.265037,-0.272851 0.504361,-0.28112 0.744139,-0.735871 0.248046,-0.454752 0.248046,-0.992186 v -1.025258 q -0.09095,0.07441 -0.297656,0.140559 -0.198437,0.05788 -0.487824,0.115755 -0.289388,0.04961 -0.628384,0.107487 -0.338997,0.05788 -0.677994,0.09922 -0.479556,0.06614 -0.892967,0.223241 -0.41341,0.148828 -0.669725,0.421679 -0.248046,0.272851 -0.248046,0.719335 0,0.372069 0.198437,0.64492 0.198437,0.264583 0.570506,0.413411 0.37207,0.14056 0.876431,0.14056 z m 4.576949,1.265036 v -1.265036 l 4.630199,-5.953114 v -0.03307 h -4.630199 v -1.48001 h 6.738593 v 1.322914 l -4.564053,5.895236 v 0.03307 h 4.613662 v 1.48001 z m 10.816153,0.198437 q -1.29811,0 -2.232418,-0.587043 -0.92604,-0.587043 -1.430401,-1.612301 -0.496092,-1.033527 -0.496092,-2.348173 0,-1.33945 0.520897,-2.364709 0.520897,-1.033526 1.438669,-1.620569 0.917772,-0.595312 2.108394,-0.595312 0.92604,0 1.670179,0.330729 0.752408,0.330728 1.289842,0.942576 0.537433,0.60358 0.826821,1.438669 0.289387,0.83509 0.289387,1.85208 v 0.471288 h -7.358709 v -1.322914 h 6.440938 l -0.768944,0.405142 q 0,-0.810285 -0.289388,-1.405596 -0.289387,-0.603579 -0.826821,-0.92604 -0.529165,-0.330728 -1.256768,-0.330728 -0.719335,0 -1.2485,0.330728 -0.529166,0.322461 -0.826822,0.92604 -0.289387,0.595311 -0.289387,1.405596 v 0.752408 q 0,0.826821 0.289387,1.463473 0.289388,0.628384 0.83509,0.983918 0.55397,0.355533 1.33945,0.355533 0.570507,0 1.008722,-0.173633 0.438216,-0.1819 0.727603,-0.496092 0.289388,-0.314193 0.413411,-0.727603 h 1.678447 q -0.157096,0.843358 -0.702798,1.488278 -0.537434,0.636653 -1.355987,1.000454 -0.810285,0.363801 -1.794202,0.363801 z"
         id="path9" /><path
         style="font-weight:500;-inkscape-font-specification:'Inter Medium';letter-spacing:-1.16946px;stroke:#2d5bb2;stroke-width:0.2;stroke-dasharray:none;stroke-opacity:1"
         d="m 42.131344,37.308685 q -0.479557,0 -0.818553,-0.330729 -0.330729,-0.338996 -0.330729,-0.826821 0,-0.487825 0.330729,-0.818553 0.338996,-0.338997 0.818553,-0.338997 0.487824,0 0.818553,0.338997 0.338997,0.330728 0.338997,0.818553 0,0.487825 -0.338997,0.826821 -0.330729,0.330729 -0.818553,0.330729 z"
         id="path10" /><path
         style="font-weight:500;font-size:5.64444px;-inkscape-font-specification:'Inter Medium';letter-spacing:-0.293687px;display:inline"
         d="m 10.548099,41.672627 q -0.297656,0 -0.537434,-0.129535 Q 9.7708862,41.4108 9.6330825,41.154485 9.4952788,40.895414 9.4952788,40.517832 V 38.704335 H 10.07681 v 1.741839 q 0,0.347265 0.168121,0.52641 0.168121,0.179145 0.471289,0.179145 0.195681,0 0.352777,-0.07993 0.159853,-0.07993 0.253559,-0.250803 0.09371,-0.173633 0.09371,-0.440972 v -1.675693 h 0.581531 v 2.910414 h -0.570507 v -0.722091 h 0.135048 q -0.14056,0.388606 -0.396875,0.584288 -0.253559,0.195681 -0.617361,0.195681 z m 2.393486,-1.733571 v 1.675693 h -0.581532 v -2.910414 h 0.570507 v 0.722091 h -0.135047 q 0.143316,-0.391362 0.396874,-0.584287 0.256315,-0.195682 0.617361,-0.195682 0.300412,0 0.537435,0.132292 0.239778,0.129536 0.377582,0.38585 0.137803,0.256315 0.137803,0.636654 v 1.813496 h -0.581531 v -1.741838 q 0,-0.350022 -0.168121,-0.526411 -0.165364,-0.179144 -0.468532,-0.179144 -0.198438,0 -0.35829,0.07993 -0.157096,0.07993 -0.250803,0.250802 -0.09371,0.170877 -0.09371,0.440972 z m 2.283242,1.675693 v -2.910414 h 0.581532 v 2.910414 z m 0.289388,-3.41202 q -0.15434,0 -0.261827,-0.101974 -0.104731,-0.104731 -0.104731,-0.253559 0,-0.151584 0.104731,-0.253559 0.107487,-0.104731 0.261827,-0.104731 0.15434,0 0.261827,0.104731 0.107487,0.101975 0.107487,0.253559 0,0.148828 -0.107487,0.253559 -0.107487,0.101974 -0.261827,0.101974 z m 2.065513,0.501606 v 0.479557 h -1.694986 v -0.479557 z m -1.174088,2.910414 v -3.381703 q 0,-0.23151 0.09646,-0.391362 0.09922,-0.162609 0.283875,-0.248047 0.184657,-0.08544 0.446484,-0.08544 0.112999,0 0.212218,0 0.101975,0 0.135048,0 v 0.479557 q -0.02756,0 -0.115755,0 -0.08819,0 -0.143316,0 -0.179145,0 -0.256315,0.07993 -0.07717,0.07717 -0.07717,0.259071 v 3.287996 z m 1.318616,0 v -2.910414 h 0.581532 v 2.910414 z m 0.289388,-3.41202 q -0.15434,0 -0.261827,-0.101974 -0.104731,-0.104731 -0.104731,-0.253559 0,-0.151584 0.104731,-0.253559 0.107487,-0.104731 0.261827,-0.104731 0.15434,0 0.261827,0.104731 0.107487,0.101975 0.107487,0.253559 0,0.148828 -0.107487,0.253559 -0.107487,0.101974 -0.261827,0.101974 z m 1.897392,3.478166 q -0.432704,0 -0.74414,-0.195681 -0.30868,-0.195681 -0.476801,-0.537434 -0.165364,-0.34451 -0.165364,-0.782726 0,-0.446484 0.173632,-0.788237 0.173633,-0.344509 0.479557,-0.54019 0.305924,-0.198438 0.702799,-0.198438 0.30868,0 0.556727,0.110243 0.250803,0.110243 0.429948,0.314193 0.179145,0.201193 0.275607,0.479557 0.09646,0.278363 0.09646,0.61736 v 0.157096 h -2.452906 v -0.440971 h 2.146982 l -0.256315,0.135047 q 0,-0.270095 -0.09646,-0.468532 -0.09646,-0.201194 -0.275607,-0.308681 -0.176389,-0.110243 -0.418924,-0.110243 -0.239778,0 -0.416167,0.110243 -0.176389,0.107487 -0.275607,0.308681 -0.09646,0.198437 -0.09646,0.468532 v 0.250803 q 0,0.275607 0.09646,0.487825 0.09646,0.209462 0.278363,0.327973 0.184657,0.118511 0.446484,0.118511 0.190169,0 0.336241,-0.05788 0.146072,-0.06063 0.242535,-0.165365 0.09646,-0.104731 0.137803,-0.242534 h 0.559484 q -0.05237,0.281119 -0.234267,0.496093 -0.179145,0.212218 -0.451996,0.333485 -0.270095,0.121267 -0.598068,0.121267 z m 2.655313,-0.0083 q -0.377583,0 -0.664214,-0.190169 -0.283876,-0.192925 -0.440972,-0.531922 -0.157096,-0.341754 -0.157096,-0.790994 0,-0.44924 0.157096,-0.788237 0.159852,-0.341753 0.443728,-0.531922 0.283875,-0.192926 0.658701,-0.192926 0.19017,0 0.35829,0.05512 0.168121,0.05236 0.303168,0.157096 0.137804,0.104731 0.231511,0.267339 h 0.0055 v -1.617815 h 0.581531 v 4.10655 h -0.570507 v -0.443727 h -0.0055 q -0.09922,0.16812 -0.237023,0.281119 -0.137803,0.110243 -0.305924,0.165365 -0.16812,0.05512 -0.358289,0.05512 z m 0.118511,-0.501605 q 0.248046,0 0.429947,-0.124024 0.184657,-0.126779 0.283876,-0.355533 0.101975,-0.228755 0.101975,-0.531923 0,-0.30868 -0.101975,-0.534678 -0.09922,-0.228754 -0.283876,-0.352778 -0.181901,-0.126779 -0.429947,-0.126779 -0.234267,0 -0.413411,0.115755 -0.176389,0.115755 -0.278364,0.341753 -0.09922,0.225998 -0.09922,0.556727 0,0.327973 0.09922,0.553971 0.101975,0.223242 0.278364,0.341753 0.179144,0.115756 0.413411,0.115756 z m 3.871403,0.490581 q -0.289387,0 -0.518142,-0.09922 -0.225998,-0.09922 -0.358289,-0.2949 -0.132292,-0.195681 -0.132292,-0.485069 0,-0.248047 0.09371,-0.407899 0.09646,-0.159852 0.259071,-0.253559 0.162608,-0.09371 0.369314,-0.14056 0.206705,-0.04961 0.427191,-0.07441 0.275608,-0.03583 0.432704,-0.05512 0.159852,-0.02205 0.225998,-0.06615 0.0689,-0.04685 0.0689,-0.151584 v -0.02481 q 0,-0.140559 -0.0689,-0.248046 -0.0689,-0.110243 -0.201193,-0.173633 -0.132292,-0.06339 -0.316949,-0.06339 -0.184657,0 -0.327973,0.06063 -0.14056,0.06063 -0.225998,0.16812 -0.08268,0.104731 -0.09371,0.239779 h -0.570508 q 0.01378,-0.278364 0.168121,-0.490581 0.15434,-0.212218 0.424435,-0.333485 0.270095,-0.121268 0.633897,-0.121268 0.267339,0 0.482313,0.0689 0.214974,0.0689 0.363802,0.198438 0.151584,0.126779 0.228754,0.305924 0.07993,0.179145 0.07993,0.399631 v 1.995397 h -0.573263 v -0.413411 h -0.01102 q -0.06063,0.118512 -0.165365,0.223242 -0.104731,0.104731 -0.275607,0.170877 -0.168121,0.06615 -0.418924,0.06615 z m 0.118512,-0.468533 q 0.256314,0 0.421679,-0.09095 0.16812,-0.09371 0.248047,-0.245291 0.08268,-0.151584 0.08268,-0.330729 v -0.341753 q -0.03032,0.02481 -0.09922,0.04685 -0.06615,0.01929 -0.162608,0.03858 -0.09646,0.01654 -0.209462,0.03583 -0.112999,0.01929 -0.225998,0.03307 -0.159852,0.02205 -0.297656,0.07441 -0.137804,0.04961 -0.223242,0.14056 -0.08268,0.09095 -0.08268,0.239778 0,0.124024 0.06615,0.214974 0.06615,0.0882 0.190169,0.137804 0.124023,0.04685 0.292144,0.04685 z m 2.269461,-3.684871 v 4.10655 h -0.581531 v -4.10655 z m 1.605249,4.172696 q -0.432704,0 -0.74414,-0.195681 -0.308681,-0.195681 -0.476801,-0.537434 -0.165365,-0.34451 -0.165365,-0.782726 0,-0.446484 0.173633,-0.788237 0.173633,-0.344509 0.479557,-0.54019 0.305924,-0.198438 0.702799,-0.198438 0.30868,0 0.556727,0.110243 0.250803,0.110243 0.429947,0.314193 0.179145,0.201193 0.275608,0.479557 0.09646,0.278363 0.09646,0.61736 v 0.157096 h -2.452906 v -0.440971 h 2.146982 l -0.256315,0.135047 q 0,-0.270095 -0.09646,-0.468532 -0.09646,-0.201194 -0.275608,-0.308681 -0.176388,-0.110243 -0.418923,-0.110243 -0.239778,0 -0.416167,0.110243 -0.176389,0.107487 -0.275608,0.308681 -0.09646,0.198437 -0.09646,0.468532 v 0.250803 q 0,0.275607 0.09646,0.487825 0.09646,0.209462 0.278364,0.327973 0.184657,0.118511 0.446484,0.118511 0.190169,0 0.336241,-0.05788 0.146072,-0.06063 0.242534,-0.165365 0.09646,-0.104731 0.137804,-0.242534 h 0.559483 q -0.05237,0.281119 -0.234266,0.496093 -0.179145,0.212218 -0.451996,0.333485 -0.270096,0.121267 -0.598068,0.121267 z m 1.536347,-0.06615 v -2.910414 h 0.556727 v 0.471289 h 0.01102 q 0.07993,-0.239779 0.250803,-0.37207 0.173633,-0.135048 0.451996,-0.135048 0.06615,0 0.121268,0.0055 0.05788,0.0028 0.09095,0.0083 v 0.542947 q -0.03307,-0.0083 -0.118511,-0.01654 -0.08544,-0.01103 -0.187413,-0.01103 -0.162609,0 -0.300412,0.07441 -0.135048,0.07441 -0.214974,0.228754 -0.07993,0.154341 -0.07993,0.394119 v 1.71979 z m 3.120755,-2.910414 v 0.479557 h -1.686718 v -0.479557 z m -1.174088,-0.793749 h 0.581532 v 2.935219 q 0,0.159852 0.06615,0.225998 0.0689,0.06339 0.242535,0.06339 0.06615,0 0.146072,0 0.07993,0 0.137804,0 v 0.479556 q -0.07166,0 -0.173633,0 -0.09922,0 -0.192925,0 -0.410655,0 -0.609093,-0.170876 -0.198437,-0.173633 -0.198437,-0.523654 z m 1.340666,3.704163 v -2.910414 h 0.581531 v 2.910414 z m 0.289387,-3.41202 q -0.15434,0 -0.261827,-0.101974 -0.10473,-0.104731 -0.10473,-0.253559 0,-0.151584 0.10473,-0.253559 0.107487,-0.104731 0.261827,-0.104731 0.154341,0 0.261827,0.104731 0.107487,0.101975 0.107487,0.253559 0,0.148828 -0.107487,0.253559 -0.107486,0.101974 -0.261827,0.101974 z m 1.235935,1.736327 v 1.675693 h -0.581532 v -2.910414 h 0.570507 v 0.722091 h -0.135047 q 0.143316,-0.391362 0.396874,-0.584287 0.256315,-0.195682 0.617361,-0.195682 0.300412,0 0.537435,0.132292 0.239778,0.129536 0.377582,0.38585 0.137804,0.256315 0.137804,0.636654 v 1.813496 h -0.581532 v -1.741838 q 0,-0.350022 -0.168121,-0.526411 -0.165364,-0.179144 -0.468532,-0.179144 -0.198438,0 -0.35829,0.07993 -0.157096,0.07993 -0.250803,0.250802 -0.09371,0.170877 -0.09371,0.440972 z m 3.553793,2.866318 q -0.35829,0 -0.631141,-0.107487 -0.270095,-0.104731 -0.43546,-0.308681 -0.165364,-0.201193 -0.203949,-0.485069 h 0.581531 q 0.03858,0.14056 0.132292,0.234267 0.09646,0.09646 0.237022,0.143315 0.143316,0.04961 0.319705,0.04961 0.352778,0 0.551215,-0.190169 0.198437,-0.190169 0.198437,-0.542947 v -0.440972 h -0.0028 q -0.09922,0.168121 -0.237022,0.278364 -0.135048,0.110243 -0.303168,0.165364 -0.165365,0.05237 -0.35829,0.05237 -0.377582,0 -0.664214,-0.19017 -0.283876,-0.192925 -0.440972,-0.529166 -0.157096,-0.338997 -0.157096,-0.782725 0,-0.443728 0.157096,-0.782725 0.159852,-0.341753 0.443728,-0.531922 0.283876,-0.19017 0.658702,-0.19017 0.190169,0 0.358289,0.05237 0.170877,0.05237 0.308681,0.165364 0.14056,0.110243 0.237022,0.283876 h 0.0028 v -0.443728 h 0.573264 v 2.871829 q 0,0.440972 -0.179145,0.711068 -0.176389,0.270095 -0.479557,0.394118 -0.300412,0.124024 -0.66697,0.124024 z m -0.03307,-1.650889 q 0.248047,0 0.429948,-0.124023 0.184657,-0.124024 0.283875,-0.350022 0.101975,-0.228754 0.101975,-0.531922 0,-0.305924 -0.101975,-0.531922 -0.09922,-0.225998 -0.283875,-0.350022 -0.181901,-0.124023 -0.429948,-0.124023 -0.234266,0 -0.413411,0.115755 -0.176389,0.112999 -0.278364,0.338997 -0.09922,0.223242 -0.09922,0.551215 0,0.325217 0.09922,0.551215 0.101975,0.223242 0.278364,0.338997 0.179145,0.115755 0.413411,0.115755 z m 2.983947,1.612304 v -4.062454 h 0.570507 v 0.418923 h 0.0083 q 0.09095,-0.159852 0.228755,-0.264583 0.140559,-0.104731 0.311436,-0.157096 0.173633,-0.05512 0.361046,-0.05512 0.377582,0 0.658702,0.192926 0.283875,0.190169 0.440971,0.531922 0.159853,0.338997 0.159853,0.788237 0,0.44924 -0.157097,0.790994 -0.157096,0.338997 -0.440971,0.531922 -0.283876,0.190169 -0.664214,0.190169 -0.187413,0 -0.355534,-0.05512 -0.165364,-0.05512 -0.300412,-0.165365 -0.135048,-0.110243 -0.23151,-0.275607 h -0.0083 v 1.590255 z m 1.358744,-1.595767 q 0.237023,0 0.413412,-0.115756 0.176388,-0.118511 0.275607,-0.341753 0.101975,-0.225998 0.101975,-0.553971 0,-0.330729 -0.101975,-0.556727 -0.09922,-0.225998 -0.275607,-0.341753 -0.176389,-0.115755 -0.413412,-0.115755 -0.248046,0 -0.432703,0.126779 -0.181901,0.124024 -0.283876,0.352778 -0.09922,0.225998 -0.09922,0.534678 0,0.303168 0.09922,0.531923 0.101975,0.228754 0.283876,0.355533 0.184657,0.124024 0.432703,0.124024 z m 2.181268,-3.662823 v 4.10655 h -0.581531 v -4.10655 z m 1.249715,4.153404 q -0.289388,0 -0.518142,-0.09922 -0.225998,-0.09922 -0.35829,-0.2949 -0.132291,-0.195681 -0.132291,-0.485069 0,-0.248047 0.09371,-0.407899 0.09646,-0.159852 0.259071,-0.253559 0.162609,-0.09371 0.369314,-0.14056 0.206706,-0.04961 0.427192,-0.07441 0.275607,-0.03583 0.432704,-0.05512 0.159852,-0.02205 0.225998,-0.06615 0.0689,-0.04685 0.0689,-0.151584 v -0.02481 q 0,-0.140559 -0.0689,-0.248046 -0.0689,-0.110243 -0.201194,-0.173633 -0.132291,-0.06339 -0.316948,-0.06339 -0.184657,0 -0.327973,0.06063 -0.14056,0.06063 -0.225998,0.16812 -0.08268,0.104731 -0.09371,0.239779 h -0.570507 q 0.01378,-0.278364 0.16812,-0.490581 0.15434,-0.212218 0.424436,-0.333485 0.270095,-0.121268 0.633897,-0.121268 0.267339,0 0.482313,0.0689 0.214974,0.0689 0.363802,0.198438 0.151584,0.126779 0.228754,0.305924 0.07993,0.179145 0.07993,0.399631 v 1.995397 h -0.573263 v -0.413411 h -0.01102 q -0.06063,0.118512 -0.165364,0.223242 -0.104731,0.104731 -0.275608,0.170877 -0.16812,0.06615 -0.418923,0.06615 z m 0.118511,-0.468533 q 0.256315,0 0.42168,-0.09095 0.16812,-0.09371 0.248046,-0.245291 0.08268,-0.151584 0.08268,-0.330729 v -0.341753 q -0.03032,0.02481 -0.09922,0.04685 -0.06615,0.01929 -0.162609,0.03858 -0.09646,0.01654 -0.209461,0.03583 -0.112999,0.01929 -0.225998,0.03307 -0.159853,0.02205 -0.297656,0.07441 -0.137804,0.04961 -0.223242,0.14056 -0.08268,0.09095 -0.08268,0.239778 0,0.124024 0.06615,0.214974 0.06615,0.0882 0.190169,0.137804 0.124024,0.04685 0.292144,0.04685 z m 3.090772,-2.488735 v 0.479557 h -1.686717 v -0.479557 z m -1.174087,-0.793749 h 0.581531 v 2.935219 q 0,0.159852 0.06615,0.225998 0.0689,0.06339 0.242535,0.06339 0.06615,0 0.146071,0 0.07993,0 0.137804,0 v 0.479556 q -0.07166,0 -0.173632,0 -0.09922,0 -0.192926,0 -0.410655,0 -0.609092,-0.170876 -0.198437,-0.173633 -0.198437,-0.523654 z m 2.64208,0.793749 v 0.479557 h -1.694986 v -0.479557 z m -1.174088,2.910414 v -3.381703 q 0,-0.23151 0.09646,-0.391362 0.09922,-0.162609 0.283875,-0.248047 0.184657,-0.08544 0.446484,-0.08544 0.113,0 0.212218,0 0.101975,0 0.135048,0 v 0.479557 q -0.02756,0 -0.115755,0 -0.08819,0 -0.143316,0 -0.179145,0 -0.256315,0.07993 -0.07717,0.07717 -0.07717,0.259071 v 3.287996 z m 2.514754,0.06615 q -0.416167,0 -0.730359,-0.192925 -0.314193,-0.192925 -0.490582,-0.534678 -0.173632,-0.341754 -0.173632,-0.788238 0,-0.451996 0.173632,-0.793749 0.176389,-0.344509 0.490582,-0.537434 0.314192,-0.195682 0.730359,-0.195682 0.416168,0 0.727604,0.195682 0.314192,0.192925 0.487825,0.537434 0.176389,0.341753 0.176389,0.793749 0,0.446484 -0.176389,0.788238 -0.173633,0.341753 -0.487825,0.534678 -0.311436,0.192925 -0.727604,0.192925 z m 0,-0.501605 q 0.248047,0 0.427192,-0.124024 0.181901,-0.126779 0.278363,-0.355533 0.09922,-0.228754 0.09922,-0.534679 0,-0.314192 -0.09922,-0.542946 -0.09646,-0.228754 -0.278363,-0.355534 -0.179145,-0.126779 -0.427192,-0.126779 -0.248046,0 -0.429947,0.126779 -0.179145,0.124024 -0.278364,0.355534 -0.09646,0.228754 -0.09646,0.542946 0,0.308681 0.09646,0.537435 0.09922,0.225998 0.278364,0.352777 0.179145,0.124024 0.429947,0.124024 z m 1.613515,0.435459 v -2.910414 h 0.556727 v 0.471289 h 0.01103 q 0.07993,-0.239779 0.250802,-0.37207 0.173633,-0.135048 0.451997,-0.135048 0.06614,0 0.121267,0.0055 0.05788,0.0028 0.09095,0.0083 v 0.542947 q -0.03307,-0.0083 -0.118511,-0.01654 -0.08544,-0.01103 -0.187413,-0.01103 -0.162608,0 -0.300412,0.07441 -0.135048,0.07441 -0.214974,0.228754 -0.07993,0.154341 -0.07993,0.394119 v 1.71979 z m 1.636666,0 v -2.910414 h 0.564995 v 0.614605 h -0.05512 q 0.08268,-0.220486 0.220486,-0.369314 0.14056,-0.151584 0.322461,-0.225998 0.181901,-0.07717 0.380338,-0.07717 0.338998,0 0.578776,0.195682 0.242535,0.192925 0.297656,0.476801 h -0.09095 q 0.06063,-0.192926 0.195681,-0.34451 0.137804,-0.151584 0.336241,-0.239778 0.198437,-0.08819 0.440972,-0.08819 0.272851,0 0.493337,0.118512 0.220486,0.118511 0.350022,0.352777 0.129535,0.23151 0.129535,0.581532 v 1.915471 h -0.584288 v -1.865862 q 0,-0.311436 -0.173632,-0.451996 -0.173633,-0.14056 -0.410655,-0.14056 -0.192926,0 -0.333485,0.08268 -0.14056,0.08268 -0.21773,0.225999 -0.07717,0.143315 -0.07717,0.330728 v 1.819009 h -0.573264 v -1.904447 q 0,-0.250803 -0.162608,-0.402387 -0.159853,-0.151584 -0.407899,-0.151584 -0.168121,0 -0.316949,0.07993 -0.146072,0.07993 -0.237022,0.237023 -0.08819,0.15434 -0.08819,0.38585 v 1.755619 z"
         id="path11" /></g></g></svg>
