<?xml version="1.0" encoding="UTF-8" standalone="no"?>
<!-- Created with Inkscape (http://www.inkscape.org/) -->

<svg
   width="46.919815mm"
   height="24.145403mm"
   viewBox="0 0 46.919815 24.145403"
   version="1.1"
   id="svg1"
   inkscape:version="1.4.3 (0d15f75, 2025-12-25)"
   sodipodi:docname="hazelogo.svg"
   xml:space="preserve"
   xmlns:inkscape="http://www.inkscape.org/namespaces/inkscape"
   xmlns:sodipodi="http://sodipodi.sourceforge.net/DTD/sodipodi-0.dtd"
   xmlns:xlink="http://www.w3.org/1999/xlink"
   xmlns="http://www.w3.org/2000/svg"
   xmlns:svg="http://www.w3.org/2000/svg"><sodipodi:namedview
     id="namedview1"
     pagecolor="#505050"
     bordercolor="#ffffff"
     borderopacity="1"
     inkscape:showpageshadow="0"
     inkscape:pageopacity="0"
     inkscape:pagecheckerboard="1"
     inkscape:deskcolor="#505050"
     inkscape:document-units="mm"
     inkscape:zoom="1.4142136"
     inkscape:cx="91.570329"
     inkscape:cy="-91.570329"
     inkscape:window-width="2560"
     inkscape:window-height="1369"
     inkscape:window-x="1912"
     inkscape:window-y="-8"
     inkscape:window-maximized="1"
     inkscape:current-layer="layer1" /><defs
     id="defs1"><linearGradient
       id="linearGradient15"
       inkscape:collect="always"><stop
         style="stop-color:#aaccff;stop-opacity:1;"
         offset="0"
         id="stop16" /><stop
         style="stop-color:#3d88ff;stop-opacity:1;"
         offset="1"
         id="stop17" /></linearGradient><linearGradient
       id="linearGradient14"
       inkscape:collect="always"><stop
         style="stop-color:#0066ff;stop-opacity:1;"
         offset="0"
         id="stop14" /><stop
         style="stop-color:#004098;stop-opacity:1;"
         offset="1"
         id="stop15" /></linearGradient><linearGradient
       id="linearGradient9"
       inkscape:collect="always"><stop
         style="stop-color:#000000;stop-opacity:1;"
         offset="0"
         id="stop9" /><stop
         style="stop-color:#000000;stop-opacity:1;"
         offset="1"
         id="stop10" /></linearGradient><linearGradient
       id="linearGradient6"
       inkscape:collect="always"><stop
         style="stop-color:#000000;stop-opacity:1;"
         offset="0"
         id="stop6" /><stop
         style="stop-color:#000000;stop-opacity:0;"
         offset="1"
         id="stop7" /></linearGradient><linearGradient
       id="linearGradient4"
       inkscape:collect="always"><stop
         style="stop-color:#ffffff;stop-opacity:1;"
         offset="0"
         id="stop4" /><stop
         style="stop-color:#e7e7e7;stop-opacity:1;"
         offset="0.90352941"
         id="stop5" /></linearGradient><linearGradient
       id="linearGradient2"
       inkscape:collect="always"><stop
         style="stop-color:#0049a7;stop-opacity:1;"
         offset="0"
         id="stop2" /><stop
         style="stop-color:#00a2d1;stop-opacity:0.49803922;"
         offset="0.5"
         id="stop8" /><stop
         style="stop-color:#00befb;stop-opacity:0;"
         offset="1"
         id="stop3" /></linearGradient><linearGradient
       inkscape:collect="always"
       xlink:href="#linearGradient2"
       id="linearGradient3"
       x1="19.413801"
       y1="105.13881"
       x2="61.747131"
       y2="105.13881"
       gradientUnits="userSpaceOnUse"
       gradientTransform="matrix(0.98984375,0,0,0.96022729,0.32946308,-3.1770672)" /><linearGradient
       inkscape:collect="always"
       xlink:href="#linearGradient6"
       id="linearGradient7"
       x1="18.852207"
       y1="87.802307"
       x2="59.533329"
       y2="87.802307"
       gradientUnits="userSpaceOnUse" /><radialGradient
       inkscape:collect="always"
       xlink:href="#linearGradient4"
       id="radialGradient9"
       cx="39.192768"
       cy="87.802307"
       fx="39.192768"
       fy="87.802307"
       r="19.038061"
       gradientTransform="matrix(1,0,0,0.32464707,0,59.297546)"
       gradientUnits="userSpaceOnUse" /><linearGradient
       inkscape:collect="always"
       xlink:href="#linearGradient9"
       id="linearGradient10"
       x1="19.560354"
       y1="100.36732"
       x2="57.73653"
       y2="100.36732"
       gradientUnits="userSpaceOnUse" /><linearGradient
       id="swatch80"
       inkscape:swatch="solid"><stop
         style="stop-color:#000080;stop-opacity:1;"
         offset="0"
         id="stop80" /></linearGradient><radialGradient
       inkscape:collect="always"
       xlink:href="#linearGradient14"
       id="radialGradient15"
       cx="1135.853"
       cy="134.63547"
       fx="1135.853"
       fy="134.63547"
       r="81.4925"
       gradientTransform="matrix(1,0,0,0.82239166,0,23.912382)"
       gradientUnits="userSpaceOnUse" /><radialGradient
       inkscape:collect="always"
       xlink:href="#linearGradient15"
       id="radialGradient17"
       cx="1107.0459"
       cy="157.5406"
       fx="1107.0459"
       fy="157.5406"
       r="52.66703"
       gradientTransform="matrix(1,0,0,0.8375946,0,25.585444)"
       gradientUnits="userSpaceOnUse" /></defs><g
     inkscape:label="Layer 1"
     inkscape:groupmode="layer"
     id="layer1"
     transform="translate(-19.546093,-76.429348)"><rect
       style="fill:url(#linearGradient3);fill-rule:evenodd;stroke-width:2.53967;stroke-linecap:round;stroke-linejoin:bevel"
       id="rect1"
       width="41.903385"
       height="5.589323"
       x="19.546093"
       y="94.985428"
       ry="0.92879683" /><path
       style="font-size:6.5349px;font-family:Helvetica;-inkscape-font-specification:Helvetica;letter-spacing:-0.091686px;word-spacing:0px;fill:#c9f3ff;fill-rule:evenodd;stroke:#000000;stroke-width:0.05;stroke-linecap:round;stroke-linejoin:bevel"
       d="m 20.188955,99.239348 0.657319,2.693092 0.666892,-2.693092 h 0.644555 l 0.670083,2.677142 0.6988,-2.677142 h 0.574357 L 23.1086,102.65677 h -0.596692 l -0.69561,-2.64523 -0.673273,2.64523 h -0.596693 l -0.985978,-3.417422 z m 5.785895,-0.07658 q 0.363759,0 0.705182,0.172307 0.341423,0.169116 0.520112,0.44034 0.172307,0.258456 0.229743,0.603076 0.05105,0.23612 0.05105,0.75304 h -2.504833 q 0.01596,0.52011 0.245697,0.83601 0.229743,0.31271 0.711564,0.31271 0.449913,0 0.717946,-0.29675 0.153161,-0.17231 0.216979,-0.39886 h 0.564784 q -0.02234,0.18826 -0.149971,0.42119 -0.124444,0.22974 -0.280797,0.37652 -0.261651,0.25527 -0.647746,0.34462 -0.207407,0.0511 -0.469058,0.0511 -0.638174,0 -1.081705,-0.46267 -0.44353,-0.46587 -0.44353,-1.30188 0,-0.82324 0.446721,-1.336973 0.446722,-0.51373 1.167858,-0.51373 z m 0.91578,1.512473 q -0.0351,-0.37333 -0.162734,-0.59669 -0.236125,-0.414817 -0.788145,-0.414817 -0.395668,0 -0.663701,0.287179 -0.268033,0.283988 -0.283987,0.724328 z m -0.970024,-1.518855 z m 2.61417,2.590985 q 0,0.24889 0.18188,0.39248 0.181879,0.14359 0.430767,0.14359 0.303133,0 0.58712,-0.1404 0.478631,-0.23293 0.478631,-0.76262 v -0.46267 q -0.105299,0.067 -0.271224,0.11168 -0.165926,0.0447 -0.325469,0.0638 l -0.347805,0.0447 q -0.312705,0.0415 -0.469058,0.13082 -0.264842,0.14997 -0.264842,0.47863 z m 1.391219,-1.16148 q 0.197834,-0.0255 0.264842,-0.16592 0.03829,-0.0766 0.03829,-0.22017 0,-0.29356 -0.210597,-0.424386 -0.207407,-0.134017 -0.596693,-0.134017 -0.449913,0 -0.638174,0.242506 -0.105299,0.134017 -0.137207,0.398857 h -0.536066 q 0.01595,-0.63179 0.408431,-0.877487 0.395668,-0.248888 0.915779,-0.248888 0.603075,0 0.979597,0.229743 0.373332,0.229742 0.373332,0.714752 v 1.96877 q 0,0.0893 0.0351,0.14359 0.03829,0.0542 0.156352,0.0542 0.03829,0 0.08615,-0.003 0.04786,-0.006 0.102107,-0.016 v 0.42438 q -0.134016,0.0383 -0.204215,0.0479 -0.0702,0.01 -0.191452,0.01 -0.296751,0 -0.430768,-0.2106 -0.0702,-0.11168 -0.09892,-0.31589 -0.175497,0.22974 -0.504157,0.39885 -0.32866,0.16912 -0.724327,0.16912 -0.47544,0 -0.778572,-0.28718 -0.299942,-0.29037 -0.299942,-0.72433 0,-0.47543 0.296751,-0.73709 0.296751,-0.26165 0.778572,-0.32227 z m -0.475439,-1.429505 z m 2.301466,-0.871107 h 0.580738 v 0.95407 h 0.545639 v 0.469058 H 32.33276 v 2.230414 q 0,0.17869 0.121253,0.23932 0.06701,0.0351 0.223361,0.0351 0.04148,0 0.08934,0 0.04786,-0.003 0.111681,-0.01 v 0.4531 q -0.09892,0.0287 -0.207407,0.0415 -0.105299,0.0128 -0.229742,0.0128 -0.40205,0 -0.545639,-0.20421 -0.143589,-0.20741 -0.143589,-0.53607 v -2.262324 h -0.462676 v -0.469058 h 0.462676 z m 1.609047,-0.33185 h 0.574357 v 1.748596 q 0.204215,-0.258461 0.36695,-0.363759 0.277605,-0.18188 0.692418,-0.18188 0.743473,0 1.008315,0.520112 0.143589,0.283987 0.143589,0.788143 v 2.19213 h -0.590311 v -2.15384 q 0,-0.37652 -0.09573,-0.552018 -0.156352,-0.280797 -0.58712,-0.280797 -0.357377,0 -0.647746,0.245697 -0.290369,0.245698 -0.290369,0.928548 v 1.81241 h -0.574357 z m 4.965841,1.209339 q 0.363759,0 0.705182,0.172307 0.341423,0.169116 0.520112,0.44034 0.172307,0.258456 0.229743,0.603076 0.05105,0.23612 0.05105,0.75304 h -2.504833 q 0.01596,0.52011 0.245697,0.83601 0.229743,0.31271 0.711564,0.31271 0.449912,0 0.717946,-0.29675 0.153161,-0.17231 0.216979,-0.39886 h 0.564783 q -0.02234,0.18826 -0.14997,0.42119 -0.124444,0.22974 -0.280797,0.37652 -0.261651,0.25527 -0.647746,0.34462 -0.207407,0.0511 -0.469058,0.0511 -0.638174,0 -1.081705,-0.46267 -0.443531,-0.46587 -0.443531,-1.30188 0,-0.82324 0.446722,-1.336973 0.446722,-0.51373 1.167858,-0.51373 z m 0.91578,1.512473 q -0.0351,-0.37333 -0.162735,-0.59669 -0.236124,-0.414817 -0.788144,-0.414817 -0.395668,0 -0.663701,0.287179 -0.268033,0.283988 -0.283987,0.724328 z m -0.970025,-1.518855 z m 2.189787,0.08296 h 0.545639 v 0.590311 q 0.06701,-0.172307 0.328659,-0.418004 0.261651,-0.248888 0.603074,-0.248888 0.01595,0 0.05425,0.0032 0.03829,0.0032 0.130826,0.01276 v 0.606265 q -0.05105,-0.0096 -0.09573,-0.01276 -0.04148,-0.0032 -0.09254,-0.0032 -0.433959,0 -0.666892,0.280798 -0.232934,0.2776 -0.232934,0.64136 v 1.96558 h -0.574356 z m 3.808405,0 h 0.545639 v 0.590311 q 0.06701,-0.172307 0.328659,-0.418004 0.261651,-0.248888 0.603074,-0.248888 0.01595,0 0.05424,0.0032 0.03829,0.0032 0.130826,0.01276 v 0.606265 q -0.05105,-0.0096 -0.09573,-0.01276 -0.04148,-0.0032 -0.09254,-0.0032 -0.433958,0 -0.666891,0.280798 -0.232934,0.2776 -0.232934,0.64136 v 1.96558 h -0.574356 z m 2.508873,2.508022 q 0,0.24889 0.18188,0.39248 0.18188,0.14359 0.430767,0.14359 0.303133,0 0.58712,-0.1404 0.478631,-0.23293 0.478631,-0.76262 v -0.46267 q -0.105299,0.067 -0.271224,0.11168 -0.165925,0.0447 -0.325469,0.0638 l -0.347805,0.0447 q -0.312705,0.0415 -0.469057,0.13082 -0.264843,0.14997 -0.264843,0.47863 z m 1.391219,-1.16148 q 0.197834,-0.0255 0.264843,-0.16592 0.03829,-0.0766 0.03829,-0.22017 0,-0.29356 -0.210597,-0.424386 -0.207407,-0.134017 -0.596693,-0.134017 -0.449912,0 -0.638174,0.242506 -0.105298,0.134017 -0.137207,0.398857 h -0.536066 q 0.01595,-0.63179 0.408431,-0.877487 0.395668,-0.248888 0.91578,-0.248888 0.603074,0 0.979596,0.229743 0.373332,0.229742 0.373332,0.714752 v 1.96877 q 0,0.0893 0.0351,0.14359 0.03829,0.0542 0.156352,0.0542 0.03829,0 0.08615,-0.003 0.04786,-0.006 0.102108,-0.016 v 0.42438 q -0.134017,0.0383 -0.204216,0.0479 -0.0702,0.01 -0.191452,0.01 -0.296751,0 -0.430768,-0.2106 -0.0702,-0.11168 -0.09892,-0.31589 -0.175497,0.22974 -0.504157,0.39885 -0.328659,0.16912 -0.724327,0.16912 -0.47544,0 -0.778572,-0.28718 -0.299942,-0.29037 -0.299942,-0.72433 0,-0.47543 0.296751,-0.73709 0.296751,-0.26165 0.778572,-0.32227 z M 47.69551,99.156385 Z m 2.550353,1.831555 q 0,0.54883 0.232933,0.91897 0.232934,0.37015 0.746664,0.37015 0.398858,0 0.654128,-0.34143 0.25846,-0.34461 0.25846,-0.98598 0,-0.64774 -0.264842,-0.957257 -0.264842,-0.312705 -0.654128,-0.312705 -0.433958,0 -0.705182,0.331852 -0.268033,0.33185 -0.268033,0.9764 z m 0.864725,-1.809219 q 0.392477,0 0.657319,0.165926 0.153162,0.09573 0.347805,0.335041 v -1.72626 h 0.55202 v 4.703342 h -0.51692 v -0.47544 q -0.201025,0.3159 -0.47544,0.45629 -0.274415,0.1404 -0.628601,0.1404 -0.571166,0 -0.98917,-0.47863 -0.418003,-0.48182 -0.418003,-1.27954 0,-0.74666 0.379713,-1.292299 0.382904,-0.54883 1.091277,-0.54883 z m 2.314231,0.07658 h 0.583929 v 3.401468 h -0.583929 z m 0,-1.28592 h 0.583929 v 0.650937 h -0.583929 z m 2.716276,4.317248 q 0.571166,0 0.781763,-0.43077 0.213788,-0.43396 0.213788,-0.96364 0,-0.47863 -0.153161,-0.77857 -0.242506,-0.472253 -0.836008,-0.472253 -0.526494,0 -0.765809,0.402053 -0.239315,0.40205 -0.239315,0.97002 0,0.54564 0.239315,0.9094 0.239315,0.36376 0.759427,0.36376 z m 0.02234,-3.146199 q 0.66051,0 1.116804,0.44034 0.456295,0.440339 0.456295,1.295489 0,0.82644 -0.40205,1.3657 -0.402049,0.53925 -1.24763,0.53925 -0.705182,0 -1.119995,-0.47544 -0.414813,-0.47863 -0.414813,-1.28273 0,-0.86153 0.437149,-1.37207 0.437149,-0.510539 1.17424,-0.510539 z m -0.01915,0.01595 z"
       id="text2"
       transform="scale(1.0291185,0.97170538)"
       aria-label="weather radio"
       inkscape:label="WEATHER RADIO" /><path
       d="M 30.704148,82.705377 V 92.72989 l 1.422397,0.3556 v 0.728132 H 27.588421 V 93.08549 l 1.422397,-0.3556 v -4.690524 h -5.740389 v 4.690524 l 1.422397,0.3556 v 0.728132 H 20.154702 V 93.08549 l 1.422397,-0.3556 V 82.705377 l -1.422397,-0.3556 v -0.728131 h 4.538124 v 0.728131 l -1.422397,0.3556 v 4.351858 h 5.740389 v -4.351858 l -1.422397,-0.3556 v -0.728131 h 4.538124 v 0.728131 z m 2.36273,9.127048 q 0,-1.320797 1.236131,-2.082795 1.236131,-0.761999 4.097858,-1.185331 -0.06773,-0.999065 -0.186266,-1.557864 -0.118533,-0.558799 -0.304799,-0.897465 -0.237067,-0.440266 -0.660399,-0.643465 -0.423333,-0.220133 -0.914398,-0.220133 -0.474133,0 -0.863599,0.169333 -0.372532,0.169333 -0.507999,0.457199 0.237067,0.169333 0.338666,0.440266 0.118533,0.270932 0.118533,0.507999 0,0.423332 -0.287866,0.677332 -0.270932,0.237066 -0.677332,0.237066 -0.406399,0 -0.677332,-0.270933 -0.253999,-0.270933 -0.253999,-0.761998 0,-0.711199 0.491066,-1.202265 0.491065,-0.491065 1.23613,-0.745065 0.761999,-0.253999 1.523997,-0.253999 0.694266,0 1.269998,0.220132 0.592665,0.2032 0.999065,0.609599 1.049864,1.049865 1.049864,3.725326 v 2.455329 q 0,0.829731 0.1016,1.151464 0.118533,0.321733 0.491066,0.321733 h 0.761998 v 0.507999 q -1.219197,0.491066 -1.896529,0.491066 -0.524933,0 -0.711199,-0.372533 Q 38.6718,93.220956 38.6718,92.137225 h -0.06773 q -0.524932,0.863598 -1.388531,1.354664 -0.863598,0.491066 -1.862663,0.491066 -1.066798,0 -1.676396,-0.575733 -0.609599,-0.575732 -0.609599,-1.574797 z m 2.997194,1.168398 q 0.474132,0 0.982131,-0.237066 0.524933,-0.254 0.880532,-0.694265 0.270933,-0.338666 0.389466,-0.795865 0.135466,-0.474133 0.135466,-1.100665 0,-0.287866 -0.01693,-0.558799 -0.01693,-0.287866 -0.0508,-0.541865 -1.371597,0.270932 -2.150529,0.592665 -0.778932,0.304799 -1.100665,0.745065 -0.321732,0.423333 -0.321732,1.066798 0,0.728132 0.321732,1.134531 0.338666,0.389466 0.931332,0.389466 z m 11.963916,-0.135466 0.338666,-2.302929 h 0.965198 v 3.251194 H 41.8304 v -0.948265 l 5.554122,-7.247453 H 43.42213 l -0.406399,2.218263 H 42.050533 V 84.66964 h 7.213586 v 0.948264 l -5.554123,7.247453 z M 58.180029,89.34323 h -5.909721 q 0,1.236131 0.338666,2.04893 0.338666,0.778931 0.965198,1.117597 0.626532,0.338666 1.354664,0.338666 0.795865,0 1.456264,-0.321732 0.660398,-0.338666 1.185331,-0.914398 l 0.541865,0.406399 q -0.592665,0.812798 -1.43933,1.38853 -0.846665,0.575733 -2.184396,0.575733 -1.168398,0 -2.065863,-0.491066 -0.897465,-0.507999 -1.371597,-1.473197 -0.253999,-0.524933 -0.372533,-1.168398 -0.118533,-0.643465 -0.118533,-1.371597 0,-2.370662 1.083732,-3.674526 1.100664,-1.303864 2.98026,-1.303864 1.727197,0 2.658528,1.083731 0.948265,1.066798 0.948265,2.963327 0,0.169333 -0.01693,0.321733 0,0.135466 -0.03387,0.474132 z m -3.657592,-3.928525 q -2.031996,0 -2.235196,3.098794 h 4.233325 V 87.9547 q 0,-1.219198 -0.524932,-1.879597 -0.507999,-0.660398 -1.473197,-0.660398 z"
       id="text1"
       style="font-size:16.9333px;font-family:Domine;-inkscape-font-specification:Domine;letter-spacing:-0.431271px;word-spacing:0px;fill:url(#radialGradient9);fill-rule:evenodd;stroke:#000000;stroke-width:0.05;stroke-linecap:round;stroke-linejoin:bevel"
       aria-label="Haze"
       inkscape:label="HAZE" /><g
       id="g17"
       transform="translate(1.7773424,-1.5434815)"><path
         style="fill:url(#radialGradient17);stroke-width:0.30954"
         d="m 1138.9179,197.81498 c -0.2511,-4.59003 -1.1715,-10.49465 -2.3112,-14.82764 -3.0396,-11.55615 -9.3679,-21.76122 -19.0865,-30.77924 -14.4452,-13.40373 -32.7442,-20.42263 -56.2764,-21.58565 -7.422,-0.36681 -6.855,0.42167 -6.855,-9.53378 v -7.66169 h 4.6229 c 10.8112,0 23.3429,2.09314 35.3112,5.89789 18.9572,6.02661 34.3599,16.0265 46.3676,30.10339 4.5983,5.39063 10.0583,14.27298 12.7608,20.75925 3.4594,8.3028 6.2616,21.11711 6.2616,28.63373 v 2.83298 h -10.2924 -10.2925 z"
         id="path4"
         inkscape:transform-center-x="50.650765"
         inkscape:transform-center-y="23.400753"
         transform="matrix(0.06708876,0,0,0.08360765,-16.981636,72.319555)" /><path
         style="fill:url(#radialGradient15);stroke-width:0.30954"
         d="m 1196.4874,199.77224 c -1.2405,-12.46321 -2.0335,-17.5655 -3.702,-23.8196 -4.2698,-16.0061 -13.5028,-32.02806 -26.4008,-45.81367 -21.2934,-22.75855 -54.349,-39.093319 -88.6082,-43.786586 -4.63,-0.634292 -12.7661,-1.341507 -19.5038,-1.695339 l -3.9121,-0.205447 0.093,-8.257943 c 0.066,-5.85936 0.201,-8.32061 0.4631,-8.473693 0.7373,-0.430515 15.9782,0.558251 24.9275,1.617196 21.1498,2.502574 44.7006,10.189745 64.1172,20.928346 12.724,7.037146 22.8314,14.445176 33.4185,24.493456 11.8955,11.29008 19.9465,21.9094 27.1465,35.80616 7.2399,13.97342 11.3367,29.08617 12.2982,45.36788 0.1026,1.73895 0.2618,3.73761 0.3539,4.44148 l 0.1671,1.27974 h -10.3357 -10.3357 z"
         id="path5"
         inkscape:transform-center-x="21.843634"
         inkscape:transform-center-y="0.49561951"
         transform="matrix(0.06708876,0,0,0.08360765,-16.981636,72.319555)" /></g></g></svg>
